<svg width="64" height="64" viewBox="0 0 64 64" fill="none" xmlns="http://www.w3.org/2000/svg">
<rect width="64" height="64" fill="#0061FF"/>
<path d="M12.2505 36.2683C12.2505 34.795 13.4449 33.6006 14.9182 33.6006C16.3915 33.6006 17.5859 34.795 17.5859 36.2683V40.0263L20.4721 41.6138C21.763 42.3238 22.2339 43.9459 21.5239 45.2368C20.8139 46.5278 19.1918 46.9987 17.9009 46.2887L13.6326 43.9411C12.7801 43.4722 12.2505 42.5765 12.2505 41.6036V36.2683Z" fill="white"/>
<path d="M12.2505 27.7317V22.3963L12.2509 22.3507C12.2671 21.3955 12.7934 20.5204 13.6326 20.0589L17.9009 17.7113C19.1918 17.0013 20.8139 17.4722 21.5239 18.7632C22.2339 20.0541 21.763 21.6762 20.4721 22.3862L17.5859 23.9736V27.7317C17.5859 29.205 16.3915 30.3994 14.9182 30.3994C13.4449 30.3994 12.2505 29.205 12.2505 27.7317Z" fill="white"/>
<path d="M30.7432 10.4349C31.5363 10.015 32.4887 10.0218 33.2767 10.4552L37.545 12.8028C38.836 13.5128 39.3069 15.1349 38.5969 16.4258C37.8869 17.7168 36.2648 18.1877 34.9738 17.4777L31.9911 15.8372L29.0084 17.4777C27.7175 18.1877 26.0954 17.7168 25.3854 16.4258C24.6754 15.1349 25.1463 13.5128 26.4372 12.8028L30.7055 10.4552L30.7432 10.4349Z" fill="white"/>
<path d="M46.3967 27.7317V23.9736L43.5105 22.3862C42.2195 21.6762 41.7486 20.0541 42.4586 18.7632C43.1687 17.4722 44.7907 17.0013 46.0817 17.7113L50.35 20.0589C51.2024 20.5277 51.7321 21.4234 51.7321 22.3963V27.7317C51.7321 29.205 50.5377 30.3994 49.0644 30.3994C47.5911 30.3994 46.3967 29.205 46.3967 27.7317Z" fill="white"/>
<path d="M46.3967 36.2683C46.3967 34.795 47.591 33.6006 49.0644 33.6006C50.5377 33.6006 51.7321 34.795 51.7321 36.2683V41.6036C51.7321 42.5692 51.2103 43.4594 50.3678 43.9312L46.0995 46.3214C44.814 47.0413 43.1884 46.5828 42.4685 45.2973C41.7487 44.0119 42.2072 42.3862 43.4926 41.6663L46.3967 40.0401V36.2683Z" fill="white"/>
<path d="M34.9738 46.5223C36.2648 45.8123 37.8869 46.2832 38.5969 47.5741C39.3069 48.8651 38.836 50.4872 37.545 51.1972L33.2767 53.5447C32.4762 53.985 31.5061 53.985 30.7055 53.5447L26.4372 51.1972C25.1463 50.4872 24.6754 48.8651 25.3854 47.5741C26.0954 46.2832 27.7175 45.8123 29.0084 46.5223L31.9911 48.1628L34.9738 46.5223Z" fill="white"/>
<path d="M34.9741 27.315C36.265 26.605 37.8871 27.0759 38.5971 28.3668C39.3072 29.6578 38.8362 31.2798 37.5453 31.9899L33.277 34.3374C31.9861 35.0474 30.364 34.5765 29.654 33.2856C28.9439 31.9946 29.4149 30.3726 30.7058 29.6625L34.9741 27.315Z" fill="white"/>
<path d="M47.7788 20.0589C49.0697 19.3489 50.6918 19.8198 51.4018 21.1108C52.1118 22.4017 51.6409 24.0238 50.35 24.7338L46.0817 27.0814C44.7907 27.7914 43.1687 27.3205 42.4586 26.0295C41.7486 24.7386 42.2195 23.1165 43.5105 22.4065L47.7788 20.0589Z" fill="white"/>
<path d="M29.3237 37.3354V32C29.3237 30.5267 30.5181 29.3323 31.9914 29.3323C33.4647 29.3323 34.6591 30.5267 34.6591 32V37.3354C34.6591 38.8087 33.4647 40.0031 31.9914 40.0031C30.5181 40.0031 29.3237 38.8087 29.3237 37.3354Z" fill="white"/>
<path d="M29.3237 51.2073V45.872C29.3237 44.3986 30.5181 43.2043 31.9914 43.2043C33.4647 43.2043 34.6591 44.3986 34.6591 45.872V51.2073C34.6591 52.6806 33.4647 53.875 31.9914 53.875C30.5181 53.875 29.3237 52.6806 29.3237 51.2073Z" fill="white"/>
<path d="M25.3953 28.3063C26.1152 27.0208 27.7408 26.5623 29.0263 27.2822L33.2946 29.6724C34.58 30.3923 35.0385 32.018 34.3187 33.3034C33.5988 34.5889 31.9732 35.0474 30.6877 34.3276L26.4194 31.9373C25.1339 31.2174 24.6754 29.5918 25.3953 28.3063Z" fill="white"/>
<path d="M12.5807 21.1108C13.2907 19.8198 14.9128 19.3489 16.2038 20.0589L20.4721 22.4065C21.763 23.1165 22.2339 24.7386 21.5239 26.0295C20.8139 27.3205 19.1918 27.7914 17.9009 27.0814L13.6326 24.7338C12.3416 24.0238 11.8707 22.4017 12.5807 21.1108Z" fill="white"/>
</svg>
